<svg width="1600" height="1100" viewBox="0 0 1600 1100" fill="none" xmlns="http://www.w3.org/2000/svg">
  <rect width="1600" height="1100" fill="#EFE1CC"/>
  <rect x="64" y="64" width="1472" height="972" rx="38" fill="#11212E"/>
  <rect x="128" y="132" width="1344" height="74" rx="30" fill="#FAF1E6" fill-opacity="0.08"/>
  <rect x="160" y="156" width="256" height="24" rx="12" fill="#FAF1E6" fill-opacity="0.74"/>
  <rect x="160" y="254" width="420" height="694" rx="32" fill="#FAF1E6" fill-opacity="0.08"/>
  <rect x="206" y="314" width="190" height="18" rx="9" fill="#FAF1E6" fill-opacity="0.66"/>
  <rect x="206" y="362" width="330" height="150" rx="28" fill="#A8551A"/>
  <rect x="206" y="548" width="276" height="18" rx="9" fill="#FAF1E6" fill-opacity="0.4"/>
  <rect x="632" y="254" width="840" height="694" rx="32" fill="#FAF1E6" fill-opacity="0.08"/>
  <rect x="686" y="314" width="216" height="20" rx="10" fill="#FAF1E6" fill-opacity="0.76"/>
  <rect x="686" y="366" width="720" height="176" rx="28" fill="#0F766E"/>
  <rect x="686" y="580" width="340" height="18" rx="9" fill="#FAF1E6" fill-opacity="0.54"/>
  <rect x="686" y="618" width="442" height="18" rx="9" fill="#FAF1E6" fill-opacity="0.3"/>
  <rect x="686" y="708" width="240" height="92" rx="24" fill="#FAF1E6" fill-opacity="0.14"/>
  <rect x="956" y="708" width="240" height="92" rx="24" fill="#A8551A"/>
  <rect x="1226" y="708" width="140" height="92" rx="24" fill="#0F766E"/>
</svg>
