<svg width="1600" height="1100" viewBox="0 0 1600 1100" fill="none" xmlns="http://www.w3.org/2000/svg">
  <defs>
    <linearGradient id="night" x1="220" y1="40" x2="1440" y2="1080" gradientUnits="userSpaceOnUse">
      <stop stop-color="#1B1730"/>
      <stop offset="1" stop-color="#080A1A"/>
    </linearGradient>
    <radialGradient id="glowPink" cx="0" cy="0" r="1" gradientUnits="userSpaceOnUse" gradientTransform="translate(420 360) rotate(24) scale(420 280)">
      <stop stop-color="#E34B8F" stop-opacity="0.55"/>
      <stop offset="1" stop-color="#E34B8F" stop-opacity="0"/>
    </radialGradient>
    <radialGradient id="glowBlue" cx="0" cy="0" r="1" gradientUnits="userSpaceOnUse" gradientTransform="translate(1160 280) rotate(140) scale(420 300)">
      <stop stop-color="#6577FF" stop-opacity="0.46"/>
      <stop offset="1" stop-color="#6577FF" stop-opacity="0"/>
    </radialGradient>
    <linearGradient id="phone" x1="0" y1="0" x2="1" y2="1">
      <stop stop-color="#13172C"/>
      <stop offset="1" stop-color="#0C1020"/>
    </linearGradient>
  </defs>

  <rect width="1600" height="1100" rx="44" fill="url(#night)"/>
  <rect width="1600" height="1100" rx="44" fill="url(#glowPink)"/>
  <rect width="1600" height="1100" rx="44" fill="url(#glowBlue)"/>

  <circle cx="330" cy="180" r="2.5" fill="#DCD9FF" fill-opacity="0.8"/>
  <circle cx="500" cy="240" r="2" fill="#DCD9FF" fill-opacity="0.6"/>
  <circle cx="1240" cy="190" r="2.4" fill="#DCD9FF" fill-opacity="0.74"/>
  <circle cx="1380" cy="260" r="2.1" fill="#DCD9FF" fill-opacity="0.64"/>
  <circle cx="1040" cy="370" r="1.8" fill="#DCD9FF" fill-opacity="0.6"/>
  <circle cx="720" cy="470" r="2.2" fill="#DCD9FF" fill-opacity="0.72"/>

  <rect x="118" y="132" width="1200" height="836" rx="34" fill="#0B1020" fill-opacity="0.55" stroke="#3A3A60" stroke-opacity="0.7" stroke-width="2"/>
  <rect x="174" y="184" width="470" height="20" rx="10" fill="#D7D1FF" fill-opacity="0.82"/>
  <rect x="174" y="222" width="408" height="14" rx="7" fill="#8C90B8" fill-opacity="0.76"/>
  <rect x="174" y="270" width="210" height="38" rx="15" fill="#D64586"/>
  <rect x="398" y="270" width="180" height="38" rx="15" fill="#1B243B" stroke="#576089"/>

  <rect x="174" y="360" width="620" height="528" rx="24" fill="#0E1530" stroke="#2F3D67"/>
  <rect x="214" y="408" width="396" height="18" rx="9" fill="#D7D1FF" fill-opacity="0.74"/>
  <rect x="214" y="442" width="520" height="14" rx="7" fill="#7F89B6"/>
  <rect x="214" y="470" width="470" height="14" rx="7" fill="#6D77A4"/>
  <rect x="214" y="534" width="168" height="30" rx="12" fill="#D64586"/>
  <rect x="398" y="534" width="146" height="30" rx="12" fill="#202A45"/>

  <rect x="860" y="246" width="372" height="708" rx="52" fill="url(#phone)" stroke="#3A4266" stroke-width="2"/>
  <rect x="890" y="296" width="312" height="600" rx="36" fill="#0D1126"/>
  <rect x="934" y="350" width="224" height="22" rx="11" fill="#D7D1FF" fill-opacity="0.72"/>
  <rect x="934" y="390" width="182" height="14" rx="7" fill="#7B87B4"/>
  <rect x="934" y="428" width="224" height="300" rx="26" fill="#131C38"/>
  <circle cx="1046" cy="578" r="72" fill="#D64586" fill-opacity="0.22"/>
  <path d="M1046 624C1081 624 1110 595 1110 560C1110 525 1081 496 1046 496C1011 496 982 525 982 560C982 595 1011 624 1046 624Z" fill="#1F2747"/>
  <path d="M1046 612C1074 612 1098 588 1098 560C1098 532 1074 508 1046 508C1018 508 994 532 994 560C994 588 1018 612 1046 612Z" fill="#D64586" fill-opacity="0.34"/>
  <rect x="944" y="756" width="204" height="42" rx="18" fill="#D64586"/>

  <path d="M860 944C910 864 986 838 1046 838C1106 838 1182 864 1232 944" stroke="#34406A" stroke-width="2"/>
</svg>
